<svg xmlns="http://www.w3.org/2000/svg" width="429.476" height="365.196" viewBox="0 0 429.476 365.196"><defs><style>.a{fill:#3f3d56;}.b{fill:#f1f1f1;}.c{fill:#f8ce6d;}.d{opacity:0.1;}.e{fill:none;stroke:#3f3d56;stroke-miterlimit:10;stroke-width:4px;}.f{fill:#57b793;}.g{fill:#656380;}.h{opacity:0.2;}.i{fill:#ffc0c6;}.j{fill:#575a88;}.k{fill:#3c354c;}.l{fill:#6c63ff;}</style></defs><g transform="translate(0.009)"><ellipse class="a" cx="139.338" cy="27.163" rx="139.338" ry="27.163" transform="translate(4.01 310.869)"/><path class="a" d="M204.922,696.3s-25.835-6.947-30.71-6.434,7.384-23.823,15.548-20.855,19.05,10.775,25.272-.252,9.713-16.962,17.294-16.368,18.079-4.743,25.654,0,12.9,10.594,23.36,10.342,20.383-23.989,28.532-14.492,17.923,18.184,25.584,15.025,16.4,1.59,23.4,6.932,19.246,2.968,23.909-1.187,8.169-7.123,18.079-6.539,41.4,7.716,53.069,16.6-15.161,20.181-27.993,20.181-15.161,3.561-26.243,8.9-29.175-2.968-41.987,5.936-29.175-4.749-51.309,0-17.5,11.273-30.327,6.539-8.164-6.539-26.826-7.716-39.07,2.968-40.82-4.749-13.4-9.5-20.4-11.871S204.922,696.3,204.922,696.3Z" transform="translate(-173.11 -364.811)"/><path class="b" d="M864.514,561.834l1.006-.644.3-.191a9.834,9.834,0,0,1-1.006-19.165l-.05,4.054,2.228-4.411h0a9.839,9.839,0,0,1,10.287,9.371v.558a11.721,11.721,0,0,0,1.942-2.867c.946-2.108.961-4.487.89-7.384-.151-5.734-.4-11.514-.719-17.279a9.829,9.829,0,0,1-8.737-9.311,8.735,8.735,0,0,1,0-.89v-.221a5.355,5.355,0,0,1,.09-.85,1.261,1.261,0,0,1,0-.136c.035-.236.086-.468.141-.7a1.2,1.2,0,0,1,.065-.257c.07-.252.146-.5.236-.744.03-.08.06-.156.1-.236.07-.181.146-.357.226-.533.04-.091.08-.186.126-.277l.035-.07h0a9.844,9.844,0,0,1,11.569-4.99l-.065,5.277,2.2-4.356a9.824,9.824,0,0,1,4.909,8.048,9.633,9.633,0,0,1-.216,2.54h0a1.05,1.05,0,0,1-.055.206c-.015.07-.065.262-.1.387s-.1.327-.151.5-.08.241-.126.362-.146.342-.221.5c-.045.1-.086.2-.131.3-.126.252-.262.5-.407.745-.05.086-.111.166-.161.247-.106.161-.211.327-.327.5a1.942,1.942,0,0,1-.221.282c-.075.091-.216.272-.332.4s-.166.181-.251.272-.241.251-.372.372l-.257.241-.448.372-.231.181c-.236.171-.473.332-.724.5l-.141.08a7.063,7.063,0,0,1-.639.347l-.282.126c-.176.081-.357.161-.543.226l-.322.116c-.181.065-.362.121-.548.171l-.332.086c-.2.05-.407.091-.614.126h-.04q.2,3.652.362,7.3a9.829,9.829,0,0,1,13.652-4.271l-1.735,4.769,3.576-3.436a9.8,9.8,0,0,1,3.179,6.791,9.666,9.666,0,0,1-.251,2.711,9.834,9.834,0,0,1-18.109,2.681v.739c.065,2.555.146,5.734-1.127,8.551a17.376,17.376,0,0,1-3.622,4.889c-.9.91-1.821,1.791-2.767,2.646a9.888,9.888,0,0,1-3.556,2.953q-2.339,1.8-4.839,3.375l-.87.634c-.936.583-1.9,1.177-2.837,1.8l.5-.04a9.839,9.839,0,0,1,9.683,6.4l-6.147,5.03,6.766-1.569a9.854,9.854,0,0,1-14.085,8.863c.156.186.307.377.458.568l.9,1.117c4.024,5.07,5.116,9.879,3.134,13.546l-2.41-1.3c1.927-3.571-.971-8.139-2.872-10.563-.287-.367-.583-.734-.88-1.1-2.555-3.174-5.453-6.776-5.382-11.192C852.859,569.052,859.323,565.048,864.514,561.834Z" transform="translate(-510.907 -294.366)"/><path class="b" d="M725.2,520.208l-1.544-.966c-.151-.091-.3-.186-.443-.282a14.734,14.734,0,0,0,1.509-28.7l.075,6.071-3.335-6.6h-.04a14.734,14.734,0,0,0-15.4,14.034c0,.282,0,.558,0,.835a17.605,17.605,0,0,1-2.913-4.3c-1.413-3.149-1.439-6.715-1.328-11.067.221-8.592.594-17.249,1.076-25.876a14.723,14.723,0,0,0,13.079-13.939v-1.67c-.03-.428-.07-.85-.136-1.268a.426.426,0,0,0-.035-.206c-.06-.352-.136-.7-.221-1.046-.03-.131-.06-.257-.1-.387-.106-.377-.216-.745-.352-1.112-.04-.121-.091-.236-.141-.357-.106-.272-.216-.533-.337-.795-.065-.141-.126-.277-.191-.413a1,1,0,0,1-.05-.106h0a14.724,14.724,0,0,0-12.45-8.048,14.894,14.894,0,0,0-4.849.583l.1,7.9-3.295-6.539a14.643,14.643,0,0,0-7.042,15.876h0a1.459,1.459,0,0,0,.081.307c.045.2.1.387.146.579s.151.5.231.729.121.362.191.538c.1.262.211.5.327.77.065.151.126.3.2.448.186.377.387.75.609,1.112.076.131.161.251.241.372a7.42,7.42,0,0,0,.5.724c.106.146.221.282.332.423s.327.407.5.6l.372.407q.272.287.558.558l.387.357c.216.191.443.377.674.553.116.091.226.186.347.277.347.257.7.5,1.076.724.07.045.146.08.216.121.312.181.629.357.951.5l.427.191c.267.121.533.236.81.337.161.065.322.121.5.176.272.091.548.176.825.251l.5.131c.307.07.614.131.921.186h.06q-.312,5.463-.543,10.926a14.724,14.724,0,0,0-20.448-6.388l2.606,7.133-5.357-5.141a14.653,14.653,0,0,0-4.759,10.171,14.463,14.463,0,0,0,.372,4.059,14.724,14.724,0,0,0,27.088,4.024c0,.372,0,.744-.035,1.112-.1,3.828-.221,8.587,1.685,12.837a25.856,25.856,0,0,0,5.428,7.314q2.012,2.052,4.145,3.964a14.745,14.745,0,0,0,5.317,4.427q3.521,2.691,7.254,5.03l1.559.966c1.4.87,2.837,1.766,4.246,2.691-.246,0-.5-.05-.744-.06a14.728,14.728,0,0,0-14.5,9.588l9.2,7.49L711.208,541a14.749,14.749,0,0,0,21.127,13.27c-.231.282-.458.563-.684.85-.453.563-.905,1.122-1.343,1.675-5.991,7.591-7.656,14.789-4.693,20.282l3.612-1.947c-2.887-5.347,1.454-12.188,4.3-15.79.428-.548.87-1.1,1.318-1.65,3.828-4.754,8.164-10.146,8.048-16.756C742.647,531.023,732.974,525.043,725.2,520.208Z" transform="translate(-420.207 -259.446)"/><path class="a" d="M609.9,723.652s-17.41-4.608-20.689-4.271,4.975-15.765,10.473-13.8,12.837,7.133,17.027-.166,6.539-11.228,11.655-10.835,12.178-3.144,17.284,0,8.687,7.012,15.74,6.846,13.728-15.881,19.226-9.6,12.073,12.042,17.234,9.95,11.067,1.051,15.77,4.588,12.963,1.967,16.1-.785,5.5-4.713,12.183-4.321,27.893,5.106,35.75,11-10.217,13.355-18.858,13.355-10.216,2.359-17.681,5.9-19.643-1.967-28.285,3.929-19.643-3.144-34.573,0-11.786,7.465-20.433,4.321-5.5-4.321-18.069-5.106-26.323,1.962-27.505-3.144-9.054-6.288-13.748-7.857S609.9,723.652,609.9,723.652Z" transform="translate(-379.535 -386.847)"/><path class="c" d="M614.76,530.976l-6.74,20.659-.292.9-11.283,34.588-19.316,13.054-93.8-39.442,8.888-35.946.473-1.891,4.759-19.241.01-.045L526.334,500Z" transform="translate(-240.207 -248.488)"/><path class="d" d="M628.71,530.976,610.4,587.124l-19.316,13.054L608.811,538.9,511.4,503.657l.01-.045L540.284,500Z" transform="translate(-254.158 -248.488)"/><path class="d" d="M551.7,512.38l-1.554-.946,15.584-1.635L632.5,533.4l-1.881.986-65.861-23.225Z" transform="translate(-273.415 -253.358)"/><path class="d" d="M616.8,574.258l-19.5,9.17L501.473,545.52,501,547.411l95.917,37.365,19.593-9.618" transform="translate(-248.989 -271.11)"/><ellipse class="a" cx="3.355" cy="3.622" rx="3.355" ry="3.622" transform="translate(256.145 269.796) rotate(-72.75)"/><ellipse class="a" cx="3.355" cy="3.622" rx="3.355" ry="3.622" transform="translate(340.608 302.5) rotate(-72.75)"/><ellipse class="a" cx="3.355" cy="3.622" rx="3.355" ry="3.622" transform="translate(327.26 343.116) rotate(-72.75)"/><ellipse class="a" cx="3.355" cy="3.622" rx="3.355" ry="3.622" transform="translate(245.811 309.038) rotate(-72.75)"/><path class="a" d="M699.972,595.058c-.2.654-1.816,0-3.868-.644s-3.652-1.348-3.451-2.012,2.133-1.006,4.185-.367S700.178,594.4,699.972,595.058Z" transform="translate(-431.306 -337.821)"/><ellipse class="a" cx="1.237" cy="3.531" rx="1.237" ry="3.531" transform="translate(271.887 253.967) rotate(-72.75)"/><path class="a" d="M786.2,626.821c-.2.654-2.218.05-4.175-.558s-3.481-1.288-3.28-1.942,2.057-1.006,4.024-.417S786.408,626.157,786.2,626.821Z" transform="translate(-474.09 -353.679)"/><path class="a" d="M868.7,656.318c-.226.734-2.369.1-4.447-.548s-3.692-1.383-3.466-2.118,2.213-1.182,4.291-.538S868.933,655.584,868.7,656.318Z" transform="translate(-514.863 -368.191)"/><path class="a" d="M892.961,652.818c-.231.734-2.369.1-4.447-.548s-3.7-1.383-3.466-2.118,2.213-1.182,4.291-.538S893.187,652.084,892.961,652.818Z" transform="translate(-526.919 -366.451)"/><path class="a" d="M906.293,646.006c-.231.734-2.012.211-3.712-.322s-3.018-1.177-2.812-1.911,1.922-1.278,3.637-.745S906.52,645.272,906.293,646.006Z" transform="translate(-534.235 -363.226)"/><path class="a" d="M826.014,617.075c-.181.584-2.012.045-3.753-.5s-3.134-1.162-2.948-1.745,1.846-.921,3.607-.377S826.19,616.486,826.014,617.075Z" transform="translate(-494.253 -348.993)"/><ellipse class="a" cx="1.237" cy="3.048" rx="1.237" ry="3.048" transform="translate(286.407 253.666) rotate(-72.75)"/><path class="d" d="M770.734,656.4a3.179,3.179,0,0,0-1.459-3.7,3.235,3.235,0,0,0,.659-1.172,15.892,15.892,0,0,1-5.359-7.836,8.294,8.294,0,0,1-6.856.691,3.179,3.179,0,0,0-2.03,2.074.911.911,0,0,1-.05.2l-.111.055a3.179,3.179,0,1,0-3.073,5.4,2.841,2.841,0,0,0,.5.111l.04,1.167,15.221,6.222-.1-1.006A3.189,3.189,0,0,0,770.734,656.4Z" transform="translate(-459.924 -363.515)"/><path class="d" d="M763.409,679.066a3.184,3.184,0,0,1-3.622,1.655,3.109,3.109,0,0,1-.337,1.3,3.179,3.179,0,0,1-4.271,1.414,3.233,3.233,0,0,1-1.172-1.006,3.179,3.179,0,0,1-5.936-2.057,3.23,3.23,0,0,1-1.006-.312,3.179,3.179,0,0,1-1.414-4.266l.1-.186-.04-.116a3.145,3.145,0,0,1-1.323-.337,3.194,3.194,0,0,1,2.887-5.7,3.31,3.31,0,0,1,.428.257l.835-.81,15.312,6.122-.77.654A3.179,3.179,0,0,1,763.409,679.066Z" transform="translate(-456.156 -376.19)"/><path class="d" d="M761.536,653.164l-3.7,11.982a3.6,3.6,0,0,0,2.178,4.442h0a3.6,3.6,0,0,0,4.688-2.3l3.7-11.987a3.592,3.592,0,0,0-2.555-4.527h0A3.591,3.591,0,0,0,761.536,653.164Z" transform="translate(-463.629 -367.124)"/><path class="a" d="M762.21,654.848l-3.355,10.745a3.219,3.219,0,0,0,1.957,3.979h0a3.225,3.225,0,0,0,4.2-2.067l3.335-10.75a3.229,3.229,0,0,0-2.294-4.085h0A3.229,3.229,0,0,0,762.21,654.848Z" transform="translate(-464.142 -368.079)"/><path class="a" d="M657.541,734.585s-17.41-4.608-20.689-4.266,4.975-15.77,10.473-13.8,12.837,7.128,17.027-.171,6.539-11.223,11.655-10.83,12.178-3.144,17.284,0,8.687,7.007,15.74,6.841,13.727-15.88,19.231-9.593,12.073,12.037,17.234,9.95,11.067,1.051,15.765,4.588,12.968,1.962,16.1-.785,5.5-4.718,12.178-4.326,27.893,5.111,35.75,11-10.211,13.36-18.858,13.36-10.211,2.354-17.676,5.89-19.648-1.962-28.29,3.929-19.643-3.139-34.573,0-11.786,7.465-20.428,4.326-5.5-4.326-18.074-5.111-26.323,1.967-27.5-3.144-9.029-6.283-13.748-7.857S657.541,734.585,657.541,734.585Z" transform="translate(-403.211 -392.282)"/><path class="e" d="M966.128,680.872c1.509-2.772-.2-6.172-2.153-8.642s-4.336-5.03-4.286-8.194c.076-4.527,4.879-7.2,8.717-9.6a42.249,42.249,0,0,0,7.827-6.293,11.374,11.374,0,0,0,2.4-3.219,13.053,13.053,0,0,0,.724-5.719q-.246-9.688-.961-19.361" transform="translate(-564.024 -351.808)"/><path class="f" d="M997.5,612.488a7.043,7.043,0,0,0-3.521-5.785l-1.579,3.129.05-3.788a7.138,7.138,0,0,0-2.329-.282,7.042,7.042,0,1,0,7.384,6.725Z" transform="translate(-575.82 -344.809)"/><path class="f" d="M973.229,703.982a7.042,7.042,0,1,1,.342-5.684l-4.412,3.607,4.854-1.122A7.044,7.044,0,0,1,973.229,703.982Z" transform="translate(-564.144 -388.52)"/><path class="f" d="M972,672.936a7.042,7.042,0,0,1-2.233-13.848l-.035,2.907,1.594-3.164h0a7.043,7.043,0,0,1,7.395,6.72,6.964,6.964,0,0,1-.3,2.409A7.042,7.042,0,0,1,972,672.936Z" transform="translate(-566.399 -371.181)"/><path class="f" d="M1006.3,650.3a7.042,7.042,0,1,1,3.124-13.215l-1.248,3.421,2.565-2.465a7.042,7.042,0,0,1,2.279,4.874,6.936,6.936,0,0,1-.176,1.947,7.042,7.042,0,0,1-6.544,5.438Z" transform="translate(-583.559 -359.948)"/><path class="d" d="M996.578,618.189c-1.63.176-3.214.684-4.849.785a5.258,5.258,0,0,1-4.462-1.559,21.017,21.017,0,0,1-1.308-2.3,5.03,5.03,0,0,0-1.781-1.675,7.042,7.042,0,1,0,13.2,4.688Q996.981,618.143,996.578,618.189Z" transform="translate(-575.853 -348.628)"/><path class="d" d="M1006.215,654.271A7.067,7.067,0,0,1,999.5,644.21a5.217,5.217,0,0,1,1.429,1.4,22.217,22.217,0,0,0,1.4,2.334,5.766,5.766,0,0,0,4.678,1.64c1.705-.075,3.35-.563,5.03-.719.236,0,.5-.035.714-.04a7.042,7.042,0,0,1-6.539,5.443Z" transform="translate(-583.478 -363.92)"/><path class="d" d="M972.141,677.06a7.042,7.042,0,0,1-6.761-9.94,5.694,5.694,0,0,1,1.509,1.434c.548.775.89,1.67,1.509,2.384a6.558,6.558,0,0,0,5,1.75c1.806-.04,3.431-.468,5.166-.6A7.042,7.042,0,0,1,972.141,677.06Z" transform="translate(-566.541 -375.305)"/><path class="d" d="M973.048,708.44a7.049,7.049,0,0,1-12.867-5.76,7.042,7.042,0,0,1,1.544,1.383,30.705,30.705,0,0,0,1.891,2.515,8.793,8.793,0,0,0,5.85,2.057,30.152,30.152,0,0,0,3.582-.2Z" transform="translate(-563.962 -392.978)"/><path class="g" d="M951.32,731.846s5.573-.171,7.254-1.368,8.551-2.621,8.989-.7,8.37,9.557,2.083,9.588-14.618-.976-16.293-2.012S951.32,731.846,951.32,731.846Z" transform="translate(-559.866 -405.976)"/><path class="h" d="M969.786,741.656c-6.293.05-14.618-1.006-16.293-2.012-1.278-.78-1.786-3.567-1.957-4.854h-.186s.352,4.5,2.012,5.533,10,2.047,16.293,2.012c1.816,0,2.44-.659,2.409-1.615C971.8,741.284,971.124,741.641,969.786,741.656Z" transform="translate(-559.88 -408.936)"/><path class="a" d="M368.851,246.605a2.268,2.268,0,0,1,.156-1.076c.407-.724,1.474-.528,2.279-.322,3.239.815,6.65.075,9.98.267s7.088,1.856,7.757,5.126a24.27,24.27,0,0,0,6.152-6.323,7.58,7.58,0,0,0,1.6-4.628c-.181-2.394-2.188-4.185-4.049-5.7l-5.533-4.527a8.3,8.3,0,0,0-2.485-1.579,12.364,12.364,0,0,0-4.024-.231c-4.024,0-8.335-1.831-11.927,0a12.694,12.694,0,0,0-3.712,3.375l-4.95,5.86a3.084,3.084,0,0,0-.79,1.343,6.015,6.015,0,0,0,.352,2.138c.236,1.308-.332,2.7.106,3.959.719,2.088,3.25,2.384,4.8,3.577.578.448,1.484,1.957,2.168,1.942C367.961,249.784,368.816,247.566,368.851,246.605Z" transform="translate(-265.635 -156.473)"/><path class="i" d="M373.638,286.545a8.816,8.816,0,0,1-1.922,4.432c-1.222,1.8-2.515,3.672-4.447,4.678a42.727,42.727,0,0,0,31.58,3.33c1.7-.5,3.7-1.549,3.6-3.315a18.034,18.034,0,0,1-5.8-2.329,12.67,12.67,0,0,1-4.261-6.036,67.822,67.822,0,0,1-1.922-7.259,1.368,1.368,0,0,0-.312-.674,1.388,1.388,0,0,0-.956-.252l-6.7-.121c-2.752,0-5.74-.065-8.295,1.1C371.017,281.56,373.729,283.838,373.638,286.545Z" transform="translate(-269.607 -182.419)"/><path class="d" d="M373.638,286.545a8.816,8.816,0,0,1-1.922,4.432c-1.222,1.8-2.515,3.672-4.447,4.678a42.727,42.727,0,0,0,31.58,3.33c1.7-.5,3.7-1.549,3.6-3.315a18.034,18.034,0,0,1-5.8-2.329,12.67,12.67,0,0,1-4.261-6.036,67.822,67.822,0,0,1-1.922-7.259,1.368,1.368,0,0,0-.312-.674,1.388,1.388,0,0,0-.956-.252l-6.7-.121c-2.752,0-5.74-.065-8.295,1.1C371.017,281.56,373.729,283.838,373.638,286.545Z" transform="translate(-269.607 -182.419)"/><path class="j" d="M359.474,743.324c-1.65,2.515-3.808,4.643-5.619,7.042s-3.325,5.2-3.345,8.2a1.3,1.3,0,0,0,.347,1.056,1.358,1.358,0,0,0,.689.216l6.992.9a11.712,11.712,0,0,0,3.219.111,11.42,11.42,0,0,0,3.3-1.2,4.553,4.553,0,0,0,1.982-1.509c.337-.553.428-1.232.75-1.8.971-1.705,3.416-1.63,5.357-1.333.558-5.186-.875-10.357-2.3-15.377a1.574,1.574,0,0,0-1.3-1.348c-1.675-.548-5.724-2.7-7.133-1.69C361.385,737.333,360.309,741.991,359.474,743.324Z" transform="translate(-261.273 -409.698)"/><path class="j" d="M430.1,752.876c1.343-.629,2.777-1.439,4.225-1.107,2.042.458,2.953,2.872,4.688,4.024a8.356,8.356,0,0,0,3.657,1.1,85.236,85.236,0,0,0,11.821.7c1.263,0,2.852-.3,3.159-1.509s-.855-2.168-1.886-2.8a55.339,55.339,0,0,0-6.982-3.627,14,14,0,0,1-3.33-1.771c-1.725-1.393-2.565-3.577-3.335-5.654-.619-1.67-1.187-5.277-2.455-6.539-1.388-1.363-3.255-.458-5-.076-2.706.594-5.875,1.006-7.616,3.436C424.509,742.61,422.552,756.372,430.1,752.876Z" transform="translate(-298.189 -409.024)"/><path class="k" d="M352.124,449.818a51.279,51.279,0,0,0-3.753,17.878,101.689,101.689,0,0,0,.87,13.707q1.192,11.067,2.394,22.133a62.434,62.434,0,0,0,1.444,9.11c.87,3.345,2.284,6.539,3.295,9.829,3.129,10.252,2.238,21.308.171,31.826a15.9,15.9,0,0,0-.433,3.521,24.577,24.577,0,0,0,1.187,5.186c2.706,10.488-3.521,22.133.543,32.194a1.6,1.6,0,0,0,.639.88,1.62,1.62,0,0,0,1.268-.055,17.154,17.154,0,0,0,3.315-1.569,20.227,20.227,0,0,0,8.219,5.951c2.384-.589,2.832-3.486,3.612-5.815a39.744,39.744,0,0,0,1.449-5.065,40.319,40.319,0,0,0,.528-6.378l2.062-72.612-.151,22.158a26.157,26.157,0,0,0,.337,5.362c.3,1.474.855,2.887,1.172,4.361a29.681,29.681,0,0,1,.372,6.449,189.534,189.534,0,0,0,3.5,38.139c.8,4.115,1.771,8.27,3.828,11.917a1.313,1.313,0,0,0,.749.734c.438.1.84-.252,1.172-.558a12.822,12.822,0,0,1,14.724-1.6c-.443-2.133,1.59-4.613.136-6.232a14.865,14.865,0,0,0-1.509-1.1,4.912,4.912,0,0,1-1.278-3.33,77.131,77.131,0,0,1,0-16.233c.709-6.746,2.3-13.546,1.127-20.222-.855-4.844-3.159-9.557-2.7-14.432.3-3.27,1.821-6.283,2.867-9.4,4.567-13.612,0-28.783,3.3-42.757.76-3.209,1.906-6.68.528-9.673l2.1-.639-4.356-9.945a18.691,18.691,0,0,0-3.521-5.926c-2.736-2.721-6.826-3.451-10.644-4.024l-31.057-4.844C356.878,448.3,353.166,447.263,352.124,449.818Z" transform="translate(-260.206 -266.486)"/><circle class="i" cx="13.295" cy="13.295" r="13.295" transform="translate(98.176 77.466)"/><path class="l" d="M367.37,297.248a3.088,3.088,0,0,0-2.143-.377,3.662,3.662,0,0,0-1.006.548l-6.288,4.407a9.723,9.723,0,0,0-2.379,2.083,7.755,7.755,0,0,0-1.107,5.221c.312,4.085,1.962,7.938,2.857,11.932s.9,8.551-1.68,11.751a6.228,6.228,0,0,0-1.1,1.554,4.528,4.528,0,0,0-.206,1.509,41.16,41.16,0,0,0,.121,5.734c.282,2.46,1.006,4.849,1.4,7.289.689,4.155.5,8.416,1.036,12.576a2.012,2.012,0,0,0,2.012,2.183,59.245,59.245,0,0,0,9.392.619c3.637,0,7.269-.2,10.9-.392l16.529-.87a1.63,1.63,0,0,0,1.836-1.685c1.449-6.952,2.907-14.029,2.223-21.092a76.8,76.8,0,0,0-3.018-13.391c-1.006-3.571-1.972-7.319-1.217-10.956.5-2.4,1.725-4.618,2.042-7.042a8.3,8.3,0,0,0-2.274-6.992c-1.851-1.776-4.552-2.45-6.4-4.23a14.544,14.544,0,0,0-1.65-1.6,2.062,2.062,0,0,0-2.168-.252,2.793,2.793,0,0,0-.825.921c-1.61,2.445-4.024,6.474-7.42,5.84C373.17,301.876,370.6,298.807,367.37,297.248Z" transform="translate(-263.148 -190.657)"/><path class="i" d="M444.7,473.255c-1.177.88-2.052,2.445-1.509,3.808a7.681,7.681,0,0,0,4.708-.654c.941-.458,2.113-1.1,2.928-.438a2.48,2.48,0,0,1,.6.905,30.592,30.592,0,0,0,3.189,5.3,5.4,5.4,0,0,0,2.374-1.715,4.965,4.965,0,0,0,.619-1.836,48.789,48.789,0,0,0,.7-4.894,4.344,4.344,0,0,0-.689-3.4C454.118,466.555,447.6,471.087,444.7,473.255Z" transform="translate(-307.254 -276.783)"/><path class="a" d="M367.2,236.7a2.253,2.253,0,0,1,.156-1.071c.407-.724,1.474-.5,2.279-.327,3.239.82,6.65.08,9.98.272s7.088,1.856,7.757,5.126a24.351,24.351,0,0,0,6.157-6.323,7.58,7.58,0,0,0,1.6-4.628c-.181-2.394-2.188-4.185-4.049-5.7l-5.533-4.527a8.289,8.289,0,0,0-2.485-1.574,12.364,12.364,0,0,0-4.024-.231c-4.024,0-8.335-1.831-11.927,0a12.865,12.865,0,0,0-3.717,3.38l-4.945,5.86a3.123,3.123,0,0,0-.795,1.338,5.894,5.894,0,0,0,.357,2.138c.231,1.308-.332,2.706.1,3.964.719,2.088,3.255,2.379,4.8,3.577.578.448,1.479,1.957,2.168,1.937C366.311,239.879,367.166,237.661,367.2,236.7Z" transform="translate(-264.815 -151.553)"/><path class="l" d="M441.759,309.6a10.312,10.312,0,0,1,8.169,1.509c3.8,2.606,5.367,7.364,6.69,11.781l2.963,9.9a60.774,60.774,0,0,1,2.907,13.245,60.508,60.508,0,0,1-.85,12.3c-.78,5.649,1.056,11.841,1.081,17.54,0,6.539-.04,13.476-3.37,19.115a3.189,3.189,0,0,0-2.012-2.148,9.381,9.381,0,0,0-2.993-.5l-8.853-.568a27.293,27.293,0,0,0,1.942-3.989c3.4-8.722,2.093-18.471.739-27.727a19.114,19.114,0,0,0-.5-2.616,24.94,24.94,0,0,1-.6-10.136,23.641,23.641,0,0,0,.156-4.618,5.16,5.16,0,0,0-.408-1.891,5.945,5.945,0,0,0-.976-1.348l-1.791-2.012a139.978,139.978,0,0,0-2.047-18.235A40.95,40.95,0,0,1,441.759,309.6Z" transform="translate(-306.54 -197.488)"/><path class="j" d="M378.71,330.389a42.727,42.727,0,0,1-16.016-27.128c-.292-1.906-1.051-4.4-2.978-4.331a3.8,3.8,0,0,0-1.64.573l-6.982,3.742a2.631,2.631,0,0,0-1.217,1.006c-.458.9.191,1.927.749,2.762,3.758,5.684,4.024,12.9,4.175,19.714.045,2.012.06,4.13-.91,5.89-.79,1.424-2.163,2.47-2.887,3.934a10.357,10.357,0,0,0-.729,4.5c-.141,10.946-.282,21.907.292,32.842a9.8,9.8,0,0,0,1.1,4.779,9.968,9.968,0,0,0,3.481,2.918l10.589,6.4a18.785,18.785,0,0,0,6.434,2.857c2.329.392,4.99-.272,6.328-2.218.649-.946.936-2.1,1.559-3.058s1.816-1.74,2.877-1.313a3.267,3.267,0,0,1,1.509,1.821,13.787,13.787,0,0,0,2.48,3.914,4.825,4.825,0,0,0,4.21,1.509,7.075,7.075,0,0,0,3.27-2.223,51.656,51.656,0,0,0,7.983-9.391,2.264,2.264,0,0,0,.453-1.424,2.868,2.868,0,0,0-.78-1.308,12.919,12.919,0,0,1-2.264-5.87c-3.979-20.926,1.64-42.677-1.454-63.753a9.978,9.978,0,0,0-2.938-6.268,24.062,24.062,0,0,0-6.283-3.692,3.018,3.018,0,0,0-2.309-.372c-1.232.5-1.237,2.2-1.147,3.521a46.129,46.129,0,0,1-.4,8.114l-1.082,9.955a19.237,19.237,0,0,1-.845,4.477A18.028,18.028,0,0,1,378.71,330.389Z" transform="translate(-260.886 -191.404)"/><path class="a" d="M250.036,146.9s-3.838,3.119-8.37-5.06S215.247,114,215.247,114s-2.832-2.591,7.928-6.907S248.628,87,248.628,87s24.517,21.8,26.917,32.591-2.852,12.626-11.866,18.36S250.036,146.9,250.036,146.9Z" transform="translate(-193.888 -87)"/><path class="g" d="M363.3,301.621,301.43,190.116l5.252-1.826,60.826,111.023a2.41,2.41,0,0,1-1.006,3.29h0a2.4,2.4,0,0,1-3.2-.981Z" transform="translate(-236.886 -137.339)"/><path class="i" d="M369.813,332.738c1.62-3.466-.04-7.465-1.147-11.127a37.594,37.594,0,0,1-1.564-8.954,6.538,6.538,0,0,1,.312-2.832,2.515,2.515,0,0,1,2.153-1.645,10.327,10.327,0,0,1,1.615,7.354,24.764,24.764,0,0,1,2.847-.558,5.327,5.327,0,0,1,5.79,3.677c1.595,5.111,2.138,10.564-.086,15.342a29.175,29.175,0,0,1-2.46,4.049l-4.849,7.083a2.123,2.123,0,0,1-1.323,1.092c-.583.086-1.192-.443-1.62-.931-1.474-1.665-4.09-4.09-3.8-6.383S368.848,334.775,369.813,332.738Z" transform="translate(-268.805 -196.921)"/><path class="l" d="M334.934,314.411c-4.925-.558-10.564.775-13.139,5.03a16.739,16.739,0,0,0-1.841,7.218c-.317,3.5-.5,7-.679,10.5l-.951,18.431c-.116,2.2-.226,4.411-.267,6.615a14.9,14.9,0,0,0,.548,5.111,15.922,15.922,0,0,0,3.018,4.764c1.2,1.469,2.706,2.983,4.472,2.555a4.86,4.86,0,0,0,1.917-1.182l4.024-3.481a44.017,44.017,0,0,0,7.586-7.681c1.006-1.419,1.831-2.953,2.847-4.361,2.988-4.145,7.586-7.289,9.16-12.148-1.509-.08-3.7-.578-4.4-1.917-.367-.709-.418-1.554-.825-2.233-.619-1.036-2.012-1.6-2.218-2.787a67.772,67.772,0,0,0-10.423,10.85l1.283-4.985a3.169,3.169,0,0,1,.568-1.293,5.7,5.7,0,0,1,1.509-.951c1.564-.946,2.158-2.9,2.475-4.7a32.913,32.913,0,0,0-4.668-23.355Z" transform="translate(-245.133 -199.958)"/></g></svg>